<svg width="50" height="auto" viewBox="0 0 204 139" fill="none" xmlns="http://www.w3.org/2000/svg">
<path d="M101.75 0C55.5 0 16.0025 28.7675 0 69.375C16.0025 109.982 55.5 138.75 101.75 138.75C148 138.75 187.497 109.982 203.5 69.375C187.497 28.7675 148 0 101.75 0ZM101.75 115.625C76.22 115.625 55.5 94.905 55.5 69.375C55.5 43.845 76.22 23.125 101.75 23.125C127.28 23.125 148 43.845 148 69.375C148 94.905 127.28 115.625 101.75 115.625ZM101.75 41.625C86.395 41.625 74 54.02 74 69.375C74 84.73 86.395 97.125 101.75 97.125C117.105 97.125 129.5 84.73 129.5 69.375C129.5 54.02 117.105 41.625 101.75 41.625Z" fill="#000" fill-opacity=".5"/>
</svg>
